<?xml version="1.0" encoding="UTF-8"?>
<svg id="Layer_1" xmlns="http://www.w3.org/2000/svg" xmlns:xlink="http://www.w3.org/1999/xlink" version="1.1" viewBox="0 0 1080 1080">
  <!-- Generator: Adobe Illustrator 30.1.0, SVG Export Plug-In . SVG Version: 2.1.1 Build 136)  -->
  <defs>
    <style>
      .st0 {
        fill: url(#linear-gradient);
      }
    </style>
    <linearGradient id="linear-gradient" x1="533.46" y1="-104.9" x2="546.1" y2="1097.57" gradientUnits="userSpaceOnUse">
      <stop offset=".14" stop-color="#255aff"/>
      <stop offset=".67" stop-color="#1646dd"/>
      <stop offset="1" stop-color="#0038c6"/>
    </linearGradient>
  </defs>
  <path class="st0" d="M421.49,398.04c0,13.55-10.99,24.54-24.54,24.54s-24.54-10.99-24.54-24.54,10.99-24.54,24.54-24.54,24.54,10.99,24.54,24.54ZM813.73,559.38c13.55,0,24.54-10.99,24.54-24.54s-10.99-24.54-24.54-24.54-24.54,10.99-24.54,24.54,10.99,24.54,24.54,24.54ZM535.18,843c13.55,0,24.54-10.99,24.54-24.54s-10.99-24.54-24.54-24.54-24.54,10.99-24.54,24.54,10.99,24.54,24.54,24.54ZM1066.39,506.56L573.68,13.85c-18.47-18.47-48.41-18.47-66.88,0l-95.15,95.15,370.33,370.33c9.36-5.37,20.19-8.45,31.76-8.45,35.32,0,63.95,28.63,63.95,63.95s-28.63,63.95-63.95,63.95-63.95-28.63-63.95-63.95c0-11.66,3.14-22.59,8.59-32L388.09,132.56,129.46,391.19l372.57,372.57c9.67-5.87,21.01-9.25,33.15-9.25,35.32,0,63.95,28.63,63.95,63.95s-28.63,63.95-63.95,63.95-63.95-28.63-63.95-63.95c0-11.72,3.16-22.68,8.66-32.13L107.11,413.54,14.09,506.56c-18.47,18.47-18.47,48.41,0,66.88l492.71,492.71c18.47,18.47,48.41,18.47,66.88,0l236.43-236.43-378.16-378.16c-10.06,6.59-22.08,10.44-35,10.44-35.32,0-63.95-28.63-63.95-63.95s28.63-63.95,63.95-63.95,63.95,28.63,63.95,63.95c0,12.06-3.34,23.34-9.15,32.96l378.53,378.53,236.1-236.1c18.47-18.47,18.47-48.41,0-66.88Z"/>
</svg>